<?xml version="1.0" encoding="UTF-8"?>
<mxfile host="app.diagrams.net" modified="2025-07-20T00:00:00.000Z" agent="Modulus LMS Database Schema" etag="modulus-db-schema" version="24.0.0">
  <diagram name="Modulus-Database-Schema" id="modulus-db-erd">
    <mxGraphModel dx="1422" dy="762" grid="1" gridSize="10" guides="1" tooltips="1" connect="1" arrows="1" fold="1" page="1" pageScale="1" pageWidth="1654" pageHeight="1169" math="0" shadow="0">
      <root>
        <mxCell id="0" />
        <mxCell id="1" parent="0" />
        
        <!-- Users Table -->
        <mxCell id="users-table" value="USERS" style="swimlane;fontStyle=1;align=center;verticalAlign=top;childLayout=stackLayout;horizontal=1;startSize=26;horizontalStack=0;resizeParent=1;resizeParentMax=0;resizeLast=0;collapsible=1;marginBottom=0;fillColor=#e1d5e7;strokeColor=#9673a6;" vertex="1" parent="1">
          <mxGeometry x="50" y="50" width="200" height="200" as="geometry" />
        </mxCell>
        <mxCell id="users-fields" value="🔑 id (PK)&#xa;📧 email&#xa;👤 name&#xa;🔒 password_hash&#xa;👔 role&#xa;🆔 student_id&#xa;✅ approved&#xa;📅 created_at&#xa;📅 updated_at" style="text;strokeColor=none;fillColor=none;align=left;verticalAlign=top;spacingLeft=4;spacingRight=4;overflow=hidden;rotatable=0;points=[[0,0.5],[1,0.5]];portConstraint=eastwest;" vertex="1" parent="users-table">
          <mxGeometry y="26" width="200" height="174" as="geometry" />
        </mxCell>

        <!-- Courses Table -->
        <mxCell id="courses-table" value="COURSES" style="swimlane;fontStyle=1;align=center;verticalAlign=top;childLayout=stackLayout;horizontal=1;startSize=26;horizontalStack=0;resizeParent=1;resizeParentMax=0;resizeLast=0;collapsible=1;marginBottom=0;fillColor=#d5e8d4;strokeColor=#82b366;" vertex="1" parent="1">
          <mxGeometry x="350" y="50" width="200" height="180" as="geometry" />
        </mxCell>
        <mxCell id="courses-fields" value="🔑 id (PK)&#xa;📚 title&#xa;📝 description&#xa;🏷️ code&#xa;🏢 department&#xa;🎓 academic_level&#xa;⏰ duration&#xa;💯 total_credits&#xa;📅 created_at&#xa;📅 updated_at" style="text;strokeColor=none;fillColor=none;align=left;verticalAlign=top;spacingLeft=4;spacingRight=4;overflow=hidden;rotatable=0;points=[[0,0.5],[1,0.5]];portConstraint=eastwest;" vertex="1" parent="courses-table">
          <mxGeometry y="26" width="200" height="154" as="geometry" />
        </mxCell>

        <!-- Modules Table -->
        <mxCell id="modules-table" value="MODULES" style="swimlane;fontStyle=1;align=center;verticalAlign=top;childLayout=stackLayout;horizontal=1;startSize=26;horizontalStack=0;resizeParent=1;resizeParentMax=0;resizeLast=0;collapsible=1;marginBottom=0;fillColor=#fff2cc;strokeColor=#d6b656;" vertex="1" parent="1">
          <mxGeometry x="650" y="50" width="200" height="140" as="geometry" />
        </mxCell>
        <mxCell id="modules-fields" value="🔑 id (PK)&#xa;📖 title&#xa;📝 description&#xa;🔗 course_id (FK)&#xa;📊 order_index&#xa;📅 created_at&#xa;📅 updated_at" style="text;strokeColor=none;fillColor=none;align=left;verticalAlign=top;spacingLeft=4;spacingRight=4;overflow=hidden;rotatable=0;points=[[0,0.5],[1,0.5]];portConstraint=eastwest;" vertex="1" parent="modules-table">
          <mxGeometry y="26" width="200" height="114" as="geometry" />
        </mxCell>

        <!-- Labs Table -->
        <mxCell id="labs-table" value="LABS" style="swimlane;fontStyle=1;align=center;verticalAlign=top;childLayout=stackLayout;horizontal=1;startSize=26;horizontalStack=0;resizeParent=1;resizeParentMax=0;resizeLast=0;collapsible=1;marginBottom=0;fillColor=#dae8fc;strokeColor=#6c8ebf;" vertex="1" parent="1">
          <mxGeometry x="950" y="50" width="200" height="160" as="geometry" />
        </mxCell>
        <mxCell id="labs-fields" value="🔑 id (PK)&#xa;🧪 title&#xa;📝 description&#xa;🖼️ icon_path&#xa;🔬 lab_type&#xa;🔗 module_id (FK)&#xa;📊 order_index&#xa;📢 published&#xa;📅 created_at&#xa;📅 updated_at" style="text;strokeColor=none;fillColor=none;align=left;verticalAlign=top;spacingLeft=4;spacingRight=4;overflow=hidden;rotatable=0;points=[[0,0.5],[1,0.5]];portConstraint=eastwest;" vertex="1" parent="labs-table">
          <mxGeometry y="26" width="200" height="134" as="geometry" />
        </mxCell>

        <!-- Tasks Table -->
        <mxCell id="tasks-table" value="TASKS" style="swimlane;fontStyle=1;align=center;verticalAlign=top;childLayout=stackLayout;horizontal=1;startSize=26;horizontalStack=0;resizeParent=1;resizeParentMax=0;resizeLast=0;collapsible=1;marginBottom=0;fillColor=#f8cecc;strokeColor=#b85450;" vertex="1" parent="1">
          <mxGeometry x="1250" y="50" width="200" height="140" as="geometry" />
        </mxCell>
        <mxCell id="tasks-fields" value="🔑 id (PK)&#xa;📋 title&#xa;📝 description&#xa;🔗 lab_id (FK)&#xa;📊 order_index&#xa;🗂️ metadata (JSON)&#xa;📅 created_at&#xa;📅 updated_at" style="text;strokeColor=none;fillColor=none;align=left;verticalAlign=top;spacingLeft=4;spacingRight=4;overflow=hidden;rotatable=0;points=[[0,0.5],[1,0.5]];portConstraint=eastwest;" vertex="1" parent="tasks-table">
          <mxGeometry y="26" width="200" height="114" as="geometry" />
        </mxCell>

        <!-- Questions Table -->
        <mxCell id="questions-table" value="QUESTIONS" style="swimlane;fontStyle=1;align=center;verticalAlign=top;childLayout=stackLayout;horizontal=1;startSize=26;horizontalStack=0;resizeParent=1;resizeParentMax=0;resizeLast=0;collapsible=1;marginBottom=0;fillColor=#fad9d5;strokeColor=#ae4132;" vertex="1" parent="1">
          <mxGeometry x="1250" y="250" width="200" height="160" as="geometry" />
        </mxCell>
        <mxCell id="questions-fields" value="🔑 id (PK)&#xa;❓ type&#xa;📝 title&#xa;📄 description&#xa;🚩 flag&#xa;💯 points&#xa;🔗 task_id (FK)&#xa;🗂️ metadata (JSON)&#xa;📅 created_at&#xa;📅 updated_at" style="text;strokeColor=none;fillColor=none;align=left;verticalAlign=top;spacingLeft=4;spacingRight=4;overflow=hidden;rotatable=0;points=[[0,0.5],[1,0.5]];portConstraint=eastwest;" vertex="1" parent="questions-table">
          <mxGeometry y="26" width="200" height="134" as="geometry" />
        </mxCell>

        <!-- Enrollments Table -->
        <mxCell id="enrollments-table" value="ENROLLMENTS" style="swimlane;fontStyle=1;align=center;verticalAlign=top;childLayout=stackLayout;horizontal=1;startSize=26;horizontalStack=0;resizeParent=1;resizeParentMax=0;resizeLast=0;collapsible=1;marginBottom=0;fillColor=#e6d0de;strokeColor=#996185;" vertex="1" parent="1">
          <mxGeometry x="200" y="300" width="200" height="120" as="geometry" />
        </mxCell>
        <mxCell id="enrollments-fields" value="🔑 id (PK)&#xa;🔗 user_id (FK)&#xa;🔗 course_id (FK)&#xa;📊 status&#xa;📅 enrolled_at&#xa;📅 completed_at" style="text;strokeColor=none;fillColor=none;align=left;verticalAlign=top;spacingLeft=4;spacingRight=4;overflow=hidden;rotatable=0;points=[[0,0.5],[1,0.5]];portConstraint=eastwest;" vertex="1" parent="enrollments-table">
          <mxGeometry y="26" width="200" height="94" as="geometry" />
        </mxCell>

        <!-- Lab Completions Table -->
        <mxCell id="completions-table" value="LAB_COMPLETIONS" style="swimlane;fontStyle=1;align=center;verticalAlign=top;childLayout=stackLayout;horizontal=1;startSize=26;horizontalStack=0;resizeParent=1;resizeParentMax=0;resizeLast=0;collapsible=1;marginBottom=0;fillColor=#cdeb8b;strokeColor=#36393d;" vertex="1" parent="1">
          <mxGeometry x="600" y="300" width="200" height="140" as="geometry" />
        </mxCell>
        <mxCell id="completions-fields" value="🔑 id (PK)&#xa;🔗 user_id (FK)&#xa;🔗 lab_id (FK)&#xa;✅ completed&#xa;💯 score&#xa;📅 completed_at&#xa;🗂️ submission_data (JSON)" style="text;strokeColor=none;fillColor=none;align=left;verticalAlign=top;spacingLeft=4;spacingRight=4;overflow=hidden;rotatable=0;points=[[0,0.5],[1,0.5]];portConstraint=eastwest;" vertex="1" parent="completions-table">
          <mxGeometry y="26" width="200" height="114" as="geometry" />
        </mxCell>

        <!-- Achievements Table -->
        <mxCell id="achievements-table" value="ACHIEVEMENTS" style="swimlane;fontStyle=1;align=center;verticalAlign=top;childLayout=stackLayout;horizontal=1;startSize=26;horizontalStack=0;resizeParent=1;resizeParentMax=0;resizeLast=0;collapsible=1;marginBottom=0;fillColor=#ffe6cc;strokeColor=#d79b00;" vertex="1" parent="1">
          <mxGeometry x="50" y="500" width="200" height="140" as="geometry" />
        </mxCell>
        <mxCell id="achievements-fields" value="🔑 id (PK)&#xa;🏆 title&#xa;📝 description&#xa;🎨 badge_color&#xa;📏 criteria_type&#xa;🗂️ criteria_value (JSON)&#xa;📅 created_at" style="text;strokeColor=none;fillColor=none;align=left;verticalAlign=top;spacingLeft=4;spacingRight=4;overflow=hidden;rotatable=0;points=[[0,0.5],[1,0.5]];portConstraint=eastwest;" vertex="1" parent="achievements-table">
          <mxGeometry y="26" width="200" height="114" as="geometry" />
        </mxCell>

        <!-- User Achievements Table -->
        <mxCell id="user-achievements-table" value="USER_ACHIEVEMENTS" style="swimlane;fontStyle=1;align=center;verticalAlign=top;childLayout=stackLayout;horizontal=1;startSize=26;horizontalStack=0;resizeParent=1;resizeParentMax=0;resizeLast=0;collapsible=1;marginBottom=0;fillColor=#d0cee2;strokeColor=#56517e;" vertex="1" parent="1">
          <mxGeometry x="350" y="500" width="200" height="100" as="geometry" />
        </mxCell>
        <mxCell id="user-achievements-fields" value="🔑 id (PK)&#xa;🔗 user_id (FK)&#xa;🔗 achievement_id (FK)&#xa;📅 earned_at" style="text;strokeColor=none;fillColor=none;align=left;verticalAlign=top;spacingLeft=4;spacingRight=4;overflow=hidden;rotatable=0;points=[[0,0.5],[1,0.5]];portConstraint=eastwest;" vertex="1" parent="user-achievements-table">
          <mxGeometry y="26" width="200" height="74" as="geometry" />
        </mxCell>

        <!-- Desktop Sessions Table -->
        <mxCell id="desktop-sessions-table" value="DESKTOP_SESSIONS" style="swimlane;fontStyle=1;align=center;verticalAlign=top;childLayout=stackLayout;horizontal=1;startSize=26;horizontalStack=0;resizeParent=1;resizeParentMax=0;resizeLast=0;collapsible=1;marginBottom=0;fillColor=#f5f5f5;strokeColor=#666666;" vertex="1" parent="1">
          <mxGeometry x="950" y="300" width="200" height="140" as="geometry" />
        </mxCell>
        <mxCell id="desktop-sessions-fields" value="🔑 id (PK)&#xa;🔗 user_id (FK)&#xa;🔗 lab_id (FK)&#xa;🆔 session_id&#xa;📊 status&#xa;🔌 vnc_port&#xa;📅 created_at&#xa;📅 last_activity" style="text;strokeColor=none;fillColor=none;align=left;verticalAlign=top;spacingLeft=4;spacingRight=4;overflow=hidden;rotatable=0;points=[[0,0.5],[1,0.5]];portConstraint=eastwest;" vertex="1" parent="desktop-sessions-table">
          <mxGeometry y="26" width="200" height="114" as="geometry" />
        </mxCell>

        <!-- Module Labs Junction Table -->
        <mxCell id="module-labs-table" value="MODULE_LABS" style="swimlane;fontStyle=1;align=center;verticalAlign=top;childLayout=stackLayout;horizontal=1;startSize=26;horizontalStack=0;resizeParent=1;resizeParentMax=0;resizeLast=0;collapsible=1;marginBottom=0;fillColor=#cce5ff;strokeColor=#4d94ff;" vertex="1" parent="1">
          <mxGeometry x="800" y="250" width="200" height="100" as="geometry" />
        </mxCell>
        <mxCell id="module-labs-fields" value="🔑 id (PK)&#xa;🔗 module_id (FK)&#xa;🔗 lab_id (FK)&#xa;📊 order_index&#xa;📅 created_at" style="text;strokeColor=none;fillColor=none;align=left;verticalAlign=top;spacingLeft=4;spacingRight=4;overflow=hidden;rotatable=0;points=[[0,0.5],[1,0.5]];portConstraint=eastwest;" vertex="1" parent="module-labs-table">
          <mxGeometry y="26" width="200" height="74" as="geometry" />
        </mxCell>

        <!-- Relationships -->
        <!-- Courses to Modules -->
        <mxCell id="course-module-rel" style="endArrow=classic;html=1;exitX=1;exitY=0.5;exitDx=0;exitDy=0;entryX=0;entryY=0.5;entryDx=0;entryDy=0;strokeWidth=2;strokeColor=#d6b656;" edge="1" parent="1" source="courses-fields" target="modules-fields">
          <mxGeometry width="50" height="50" relative="1" as="geometry">
            <mxPoint x="580" y="140" as="sourcePoint" />
            <mxPoint x="630" y="90" as="targetPoint" />
          </mxGeometry>
        </mxCell>
        <mxCell id="course-module-label" value="1:M" style="text;html=1;strokeColor=none;fillColor=none;align=center;verticalAlign=middle;whiteSpace=wrap;rounded=0;fontWeight=bold;" vertex="1" parent="1">
          <mxGeometry x="580" y="110" width="40" height="20" as="geometry" />
        </mxCell>

        <!-- Modules to Labs -->
        <mxCell id="module-lab-rel" style="endArrow=classic;html=1;exitX=1;exitY=0.5;exitDx=0;exitDy=0;entryX=0;entryY=0.5;entryDx=0;entryDy=0;strokeWidth=2;strokeColor=#6c8ebf;" edge="1" parent="1" source="modules-fields" target="labs-fields">
          <mxGeometry width="50" height="50" relative="1" as="geometry">
            <mxPoint x="880" y="140" as="sourcePoint" />
            <mxPoint x="930" y="90" as="targetPoint" />
          </mxGeometry>
        </mxCell>
        <mxCell id="module-lab-label" value="1:M" style="text;html=1;strokeColor=none;fillColor=none;align=center;verticalAlign=middle;whiteSpace=wrap;rounded=0;fontWeight=bold;" vertex="1" parent="1">
          <mxGeometry x="880" y="110" width="40" height="20" as="geometry" />
        </mxCell>

        <!-- Labs to Tasks -->
        <mxCell id="lab-task-rel" style="endArrow=classic;html=1;exitX=1;exitY=0.5;exitDx=0;exitDy=0;entryX=0;entryY=0.5;entryDx=0;entryDy=0;strokeWidth=2;strokeColor=#b85450;" edge="1" parent="1" source="labs-fields" target="tasks-fields">
          <mxGeometry width="50" height="50" relative="1" as="geometry">
            <mxPoint x="1180" y="140" as="sourcePoint" />
            <mxPoint x="1230" y="90" as="targetPoint" />
          </mxGeometry>
        </mxCell>
        <mxCell id="lab-task-label" value="1:M" style="text;html=1;strokeColor=none;fillColor=none;align=center;verticalAlign=middle;whiteSpace=wrap;rounded=0;fontWeight=bold;" vertex="1" parent="1">
          <mxGeometry x="1180" y="110" width="40" height="20" as="geometry" />
        </mxCell>

        <!-- Tasks to Questions -->
        <mxCell id="task-question-rel" style="endArrow=classic;html=1;exitX=0.5;exitY=1;exitDx=0;exitDy=0;entryX=0.5;entryY=0;entryDx=0;entryDy=0;strokeWidth=2;strokeColor=#ae4132;" edge="1" parent="1" source="tasks-table" target="questions-table">
          <mxGeometry width="50" height="50" relative="1" as="geometry">
            <mxPoint x="1300" y="220" as="sourcePoint" />
            <mxPoint x="1350" y="170" as="targetPoint" />
          </mxGeometry>
        </mxCell>
        <mxCell id="task-question-label" value="1:M" style="text;html=1;strokeColor=none;fillColor=none;align=center;verticalAlign=middle;whiteSpace=wrap;rounded=0;fontWeight=bold;" vertex="1" parent="1">
          <mxGeometry x="1330" y="210" width="40" height="20" as="geometry" />
        </mxCell>

        <!-- Users to Enrollments -->
        <mxCell id="user-enrollment-rel" style="endArrow=classic;html=1;exitX=0.5;exitY=1;exitDx=0;exitDy=0;entryX=0;entryY=0.5;entryDx=0;entryDy=0;strokeWidth=2;strokeColor=#9673a6;" edge="1" parent="1" source="users-table" target="enrollments-fields">
          <mxGeometry width="50" height="50" relative="1" as="geometry">
            <mxPoint x="120" y="280" as="sourcePoint" />
            <mxPoint x="170" y="230" as="targetPoint" />
          </mxGeometry>
        </mxCell>
        <mxCell id="user-enrollment-label" value="1:M" style="text;html=1;strokeColor=none;fillColor=none;align=center;verticalAlign=middle;whiteSpace=wrap;rounded=0;fontWeight=bold;" vertex="1" parent="1">
          <mxGeometry x="120" y="270" width="40" height="20" as="geometry" />
        </mxCell>

        <!-- Title -->
        <mxCell id="title" value="Modulus LMS - Database Schema" style="text;html=1;strokeColor=none;fillColor=none;align=center;verticalAlign=middle;whiteSpace=wrap;rounded=0;fontSize=24;fontStyle=1;" vertex="1" parent="1">
          <mxGeometry x="650" y="10" width="400" height="30" as="geometry" />
        </mxCell>

        <!-- Legend -->
        <mxCell id="legend-title" value="Table Types Legend:" style="text;html=1;strokeColor=none;fillColor=none;align=left;verticalAlign=middle;whiteSpace=wrap;rounded=0;fontSize=14;fontStyle=1;" vertex="1" parent="1">
          <mxGeometry x="50" y="700" width="150" height="20" as="geometry" />
        </mxCell>
        
        <mxCell id="legend-users" value="👥 User Management" style="text;html=1;strokeColor=#9673a6;fillColor=#e1d5e7;align=center;verticalAlign=middle;whiteSpace=wrap;rounded=1;" vertex="1" parent="1">
          <mxGeometry x="50" y="730" width="120" height="30" as="geometry" />
        </mxCell>
        
        <mxCell id="legend-content" value="📚 Content Structure" style="text;html=1;strokeColor=#82b366;fillColor=#d5e8d4;align=center;verticalAlign=middle;whiteSpace=wrap;rounded=1;" vertex="1" parent="1">
          <mxGeometry x="190" y="730" width="120" height="30" as="geometry" />
        </mxCell>
        
        <mxCell id="legend-progress" value="📊 Progress Tracking" style="text;html=1;strokeColor=#36393d;fillColor=#cdeb8b;align=center;verticalAlign=middle;whiteSpace=wrap;rounded=1;" vertex="1" parent="1">
          <mxGeometry x="330" y="730" width="120" height="30" as="geometry" />
        </mxCell>
        
        <mxCell id="legend-gamification" value="🏆 Gamification" style="text;html=1;strokeColor=#d79b00;fillColor=#ffe6cc;align=center;verticalAlign=middle;whiteSpace=wrap;rounded=1;" vertex="1" parent="1">
          <mxGeometry x="470" y="730" width="120" height="30" as="geometry" />
        </mxCell>
        
        <mxCell id="legend-system" value="🖥️ System Tables" style="text;html=1;strokeColor=#666666;fillColor=#f5f5f5;align=center;verticalAlign=middle;whiteSpace=wrap;rounded=1;" vertex="1" parent="1">
          <mxGeometry x="610" y="730" width="120" height="30" as="geometry" />
        </mxCell>

      </root>
    </mxGraphModel>
  </diagram>
</mxfile>
